<svg width="92" height="42" viewBox="0 0 92 42" fill="none" xmlns="http://www.w3.org/2000/svg">
<path d="M45.9479 41.4756L0.303345 0.524414H91.9996L45.9479 41.4756ZM34.0367 5.24707C33.7335 5.24711 33.452 5.2872 33.192 5.36719C32.9319 5.44389 32.7048 5.55542 32.5114 5.70215C32.3214 5.84551 32.1712 6.02242 32.0612 6.23242C31.9512 6.43911 31.8961 6.67263 31.8961 6.93262C31.8961 7.24602 31.9748 7.52108 32.1315 7.75781C32.2882 7.99123 32.502 8.17985 32.7721 8.32324C32.652 8.37993 32.5483 8.44519 32.4615 8.51855C32.3751 8.59176 32.3018 8.66977 32.2418 8.75293C32.1852 8.8328 32.1435 8.91642 32.1168 9.00293C32.0902 9.08619 32.0768 9.16656 32.0768 9.24316C32.0768 9.43325 32.1128 9.58893 32.1862 9.70898C32.2595 9.82899 32.3603 9.92723 32.4869 10.0039C32.2468 10.0973 32.0598 10.2206 31.9264 10.374C31.793 10.5274 31.7262 10.7191 31.7262 10.9492C31.7262 11.1258 31.7727 11.2957 31.8658 11.459C31.9592 11.6224 32.1031 11.7663 32.2965 11.8896C32.4932 12.0164 32.7384 12.1176 33.0319 12.1943C33.3287 12.271 33.6807 12.3096 34.0875 12.3096C34.5009 12.3095 34.868 12.2561 35.1881 12.1494C35.508 12.0461 35.7777 11.9076 35.9977 11.7344C36.2177 11.561 36.3853 11.363 36.4987 11.1396C36.612 10.9162 36.6686 10.6875 36.6686 10.4541C36.6686 10.204 36.6213 9.99894 36.528 9.83887C36.4346 9.67549 36.3112 9.54494 36.1578 9.44824C36.0045 9.35166 35.829 9.2816 35.6324 9.23828C35.4392 9.19499 35.2409 9.1651 35.0377 9.14844C34.8343 9.12843 34.6339 9.11662 34.4371 9.11328C34.244 9.10662 34.0708 9.09632 33.9176 9.08301C33.7643 9.06635 33.6408 9.03956 33.5475 9.00293C33.4542 8.96294 33.4069 8.90008 33.4069 8.81348C33.4069 8.72681 33.4635 8.64813 33.5768 8.57812C33.6501 8.59146 33.7257 8.60173 33.8024 8.6084C33.8788 8.61172 33.957 8.61327 34.0367 8.61328C34.3302 8.61328 34.6061 8.57475 34.8629 8.49805C35.1196 8.41802 35.3413 8.30642 35.528 8.16309C35.718 8.01635 35.8666 7.83957 35.9733 7.63281C36.0833 7.42611 36.1383 7.19265 36.1383 6.93262C36.1383 6.84925 36.1311 6.76908 36.1178 6.69238C36.1078 6.61568 36.0929 6.54016 36.0729 6.4668L36.4479 6.38184C36.5643 6.35523 36.6462 6.31739 36.693 6.26758C36.7429 6.21764 36.7681 6.149 36.7682 6.0625V5.49707H35.2076C34.8675 5.33033 34.4769 5.24707 34.0367 5.24707ZM62.3737 5.25684C61.9501 5.25684 61.576 5.32519 61.2526 5.46191C60.9325 5.59863 60.6621 5.7873 60.442 6.02734C60.2255 6.26399 60.0602 6.54552 59.9469 6.87207C59.8369 7.19555 59.7819 7.54447 59.7819 7.91797C59.7819 8.29477 59.8322 8.63658 59.9323 8.94336C60.0356 9.24668 60.1755 9.51004 60.3522 9.7334C60.5289 9.95678 60.7356 10.1392 60.9723 10.2793C61.2091 10.4194 61.4629 10.5144 61.733 10.5645L61.4977 11.249C61.7411 11.2857 61.9133 11.3211 62.0133 11.3545C62.1166 11.3878 62.1686 11.4413 62.1686 11.5146C62.1685 11.5513 62.1495 11.5843 62.1129 11.6143C62.0763 11.6442 62.0149 11.6592 61.9283 11.6592C61.8583 11.6592 61.7993 11.653 61.7526 11.6396C61.706 11.6297 61.6579 11.625 61.608 11.625C61.5147 11.625 61.4581 11.6697 61.4381 11.7598L61.2975 12.2246C61.4242 12.2513 61.5445 12.2718 61.6578 12.2852C61.7744 12.2985 61.9012 12.3047 62.0377 12.3047C62.2378 12.3047 62.4202 12.2867 62.5836 12.25C62.7503 12.2167 62.8918 12.1663 63.0084 12.0996C63.1251 12.0329 63.2156 11.9527 63.2789 11.8594C63.3454 11.7662 63.3785 11.6614 63.3785 11.5449C63.3785 11.4616 63.3651 11.3813 63.3385 11.3047C63.3118 11.228 63.2671 11.1556 63.2037 11.0889C63.1437 11.0256 63.0603 10.9674 62.9537 10.9141C62.8504 10.8607 62.7183 10.8144 62.5582 10.7744L62.608 10.5791C62.7547 10.5624 62.9018 10.5357 63.0485 10.499C63.1985 10.459 63.3455 10.4056 63.4889 10.3389C63.6355 10.2722 63.7771 10.1888 63.9137 10.0889C64.0537 9.98552 64.1874 9.86053 64.3141 9.71387L63.8639 9.1582C63.8005 9.0683 63.7069 9.02344 63.5836 9.02344C63.4904 9.02348 63.4125 9.04718 63.3492 9.09375C63.2893 9.14034 63.2222 9.19149 63.149 9.24805C63.0757 9.3014 62.9852 9.35175 62.8785 9.39844C62.7752 9.44176 62.6336 9.46384 62.4537 9.46387C62.1169 9.46387 61.8513 9.33026 61.6578 9.06348C61.4678 8.79671 61.3727 8.4148 61.3727 7.91797C61.3727 7.6812 61.3948 7.46898 61.4381 7.28223C61.4815 7.09236 61.5484 6.93268 61.6383 6.80273C61.7283 6.67268 61.8414 6.57198 61.9781 6.50195C62.1182 6.43198 62.2833 6.39747 62.4733 6.39746C62.6267 6.39746 62.7556 6.41547 62.859 6.45215C62.9622 6.48877 63.052 6.53056 63.1285 6.57715C63.2052 6.62047 63.2736 6.66061 63.3336 6.69727C63.3969 6.73391 63.467 6.75191 63.5436 6.75195C63.6236 6.75195 63.6858 6.7355 63.7291 6.70215C63.7724 6.66884 63.8173 6.62393 63.8639 6.56738L64.274 6.02246C64.0273 5.77242 63.7507 5.5822 63.444 5.45215C63.1372 5.32213 62.7804 5.25687 62.3737 5.25684ZM33.3971 10.249C33.6138 10.269 33.8308 10.2824 34.0475 10.2891C34.2674 10.2924 34.4656 10.3058 34.6422 10.3291C34.819 10.3524 34.9628 10.3925 35.0729 10.4492C35.1827 10.5025 35.2378 10.5907 35.2379 10.7139C35.2379 10.7904 35.2213 10.8606 35.1881 10.9238C35.1548 10.9905 35.0942 11.048 35.0074 11.0947C34.9241 11.1413 34.8107 11.1775 34.6676 11.2041C34.5242 11.2308 34.3403 11.2441 34.1168 11.2441C33.9103 11.2441 33.7388 11.2307 33.6022 11.2041C33.4688 11.1808 33.3619 11.1478 33.2819 11.1045C33.2018 11.0611 33.1453 11.0092 33.1119 10.9492C33.0819 10.8892 33.067 10.8224 33.067 10.749C33.067 10.6457 33.0969 10.5536 33.1569 10.4736C33.2202 10.3904 33.3005 10.3156 33.3971 10.249ZM28.6881 5.25684C28.2913 5.25684 27.929 5.31802 27.6022 5.44141C27.2789 5.56475 26.999 5.74174 26.7623 5.97168C26.5289 6.20177 26.3475 6.48237 26.2174 6.8125C26.0907 7.13931 26.027 7.50779 26.027 7.91797C26.027 8.3314 26.0907 8.70466 26.2174 9.03809C26.3475 9.36823 26.5289 9.65035 26.7623 9.88379C26.999 10.1138 27.2789 10.2922 27.6022 10.4189C27.929 10.5423 28.2913 10.6045 28.6881 10.6045C29.0815 10.6045 29.4399 10.5423 29.7633 10.4189C30.0868 10.2922 30.3643 10.1139 30.5944 9.88379C30.8277 9.65039 31.0077 9.36815 31.1344 9.03809C31.2644 8.70471 31.3297 8.33132 31.3297 7.91797C31.3297 7.50785 31.2644 7.13927 31.1344 6.8125C31.0077 6.48236 30.8278 6.20178 30.5944 5.97168C30.3643 5.74158 30.0868 5.56479 29.7633 5.44141C29.4399 5.31812 29.0815 5.25684 28.6881 5.25684ZM43.3424 5.23633C42.9056 5.23633 42.4954 5.30472 42.1119 5.44141C41.732 5.57473 41.3852 5.78006 41.0719 6.05664L41.3512 6.54199C41.3979 6.61536 41.4585 6.67906 41.5319 6.73242C41.6051 6.78564 41.6949 6.81244 41.8014 6.8125C41.9214 6.8125 42.0252 6.79197 42.1119 6.75195C42.1985 6.712 42.2867 6.66711 42.3766 6.61719C42.4699 6.56719 42.5754 6.52242 42.692 6.48242C42.8087 6.44241 42.9589 6.42189 43.1422 6.42188C43.3722 6.42188 43.5491 6.4904 43.6725 6.62695C43.7992 6.76029 43.8629 6.97896 43.8629 7.28223V7.50293C43.2695 7.51627 42.7775 7.57596 42.3873 7.68262C41.9972 7.78933 41.6868 7.92294 41.4567 8.08301C41.2266 8.23974 41.0647 8.41498 40.9713 8.6084C40.878 8.79842 40.8317 8.98714 40.8317 9.17383C40.8317 9.40711 40.8677 9.61396 40.941 9.79395C41.0144 9.97066 41.1182 10.1192 41.2516 10.2393C41.3882 10.3592 41.5534 10.4503 41.7467 10.5137C41.9401 10.5737 42.1554 10.6045 42.3922 10.6045C42.5689 10.6045 42.7293 10.5886 42.8727 10.5586C43.0192 10.5319 43.1563 10.4902 43.2828 10.4336C43.4127 10.3736 43.5379 10.302 43.6578 10.2188C43.7778 10.1354 43.9029 10.0387 44.0328 9.92871L44.1432 10.2139C44.1932 10.3404 44.2545 10.4238 44.3278 10.4639C44.4044 10.5039 44.5161 10.5244 44.6627 10.5244H45.3737V7.28223C45.3736 6.98557 45.3264 6.71192 45.233 6.46191C45.1397 6.21198 45.0044 5.99736 44.8278 5.81738C44.6544 5.63401 44.4415 5.49164 44.1881 5.3916C43.938 5.28822 43.6559 5.23633 43.3424 5.23633ZM57.0299 5.23633C56.5931 5.23636 56.1829 5.30471 55.7994 5.44141C55.4194 5.57475 55.0728 5.78002 54.7594 6.05664L55.0397 6.54199C55.0864 6.61536 55.146 6.67906 55.2194 6.73242C55.2927 6.78577 55.3832 6.8125 55.4899 6.8125C55.6098 6.81246 55.7128 6.79193 55.7994 6.75195C55.8861 6.71194 55.975 6.66721 56.0651 6.61719C56.1583 6.56728 56.2631 6.52236 56.3795 6.48242C56.4962 6.44243 56.6465 6.4219 56.8297 6.42188C57.0596 6.42188 57.2366 6.49047 57.36 6.62695C57.4867 6.76029 57.5504 6.97896 57.5504 7.28223V7.50293C56.9569 7.51627 56.465 7.57592 56.0748 7.68262C55.6847 7.78933 55.3743 7.92294 55.1442 8.08301C54.9141 8.23972 54.7522 8.41502 54.6588 8.6084C54.5655 8.79839 54.5192 8.98717 54.5192 9.17383C54.5192 9.40711 54.5562 9.61396 54.6295 9.79395C54.7029 9.97054 54.8058 10.1193 54.9391 10.2393C55.0757 10.3592 55.241 10.4503 55.4342 10.5137C55.6276 10.5737 55.843 10.6045 56.0797 10.6045C56.2565 10.6045 56.4168 10.5886 56.5602 10.5586C56.7068 10.5319 56.8437 10.4902 56.9703 10.4336C57.1003 10.3736 57.2254 10.3021 57.3453 10.2188C57.4653 10.1354 57.5903 10.0387 57.7203 9.92871L57.8307 10.2139C57.8806 10.3404 57.942 10.4238 58.0153 10.4639C58.092 10.5039 58.2045 10.5244 58.3512 10.5244H59.0612V7.28223C59.0611 6.98557 59.0139 6.71192 58.9205 6.46191C58.8272 6.21219 58.6927 5.99727 58.5162 5.81738C58.3428 5.63397 58.1291 5.49165 57.8756 5.3916C57.6255 5.28822 57.3434 5.23633 57.0299 5.23633ZM67.0836 5.23633C66.6469 5.23633 66.2366 5.30476 65.8531 5.44141C65.473 5.57479 65.1256 5.77986 64.8121 6.05664L65.0924 6.54199C65.1391 6.61536 65.1997 6.67906 65.2731 6.73242C65.3463 6.78561 65.4361 6.81247 65.5426 6.8125C65.6627 6.8125 65.7664 6.79197 65.8531 6.75195C65.9397 6.71199 66.0279 6.66711 66.1178 6.61719C66.2112 6.56717 66.3165 6.52244 66.4332 6.48242C66.5499 6.4424 66.7 6.42188 66.8834 6.42188C67.1134 6.42188 67.2903 6.49034 67.4137 6.62695C67.5404 6.76029 67.6041 6.97896 67.6041 7.28223V7.50293C67.0105 7.51627 66.5177 7.5759 66.1276 7.68262C65.7377 7.78929 65.4279 7.92304 65.1979 8.08301C64.9678 8.23974 64.8059 8.41498 64.7125 8.6084C64.6192 8.79844 64.5719 8.98712 64.5719 9.17383C64.5719 9.40711 64.6089 9.61396 64.6823 9.79395C64.7556 9.97063 64.8594 10.1192 64.9928 10.2393C65.1295 10.3592 65.2946 10.4504 65.4879 10.5137C65.6813 10.5737 65.8967 10.6045 66.1334 10.6045C66.3099 10.6045 66.4697 10.5886 66.6129 10.5586C66.7596 10.5319 66.8964 10.4903 67.0231 10.4336C67.1531 10.3736 67.279 10.3021 67.399 10.2188C67.519 10.1354 67.6441 10.0386 67.774 9.92871L67.8834 10.2139C67.9334 10.3406 67.9956 10.4238 68.069 10.4639C68.1456 10.5039 68.2573 10.5244 68.4039 10.5244H69.1139V7.28223C69.1139 6.98557 69.0676 6.71192 68.9742 6.46191C68.8809 6.212 68.7456 5.99736 68.569 5.81738C68.3956 5.63405 68.1826 5.49164 67.9293 5.3916C67.6793 5.28824 67.397 5.23634 67.0836 5.23633ZM72.4967 5.25684C72.0999 5.25684 71.7376 5.31802 71.4108 5.44141C71.0875 5.56475 70.8076 5.74174 70.5709 5.97168C70.3375 6.20177 70.1561 6.48238 70.026 6.8125C69.8993 7.13931 69.8356 7.50779 69.8356 7.91797C69.8356 8.33141 69.8993 8.70465 70.026 9.03809C70.1561 9.36823 70.3375 9.65035 70.5709 9.88379C70.8076 10.1138 71.0875 10.2922 71.4108 10.4189C71.7376 10.5423 72.0999 10.6045 72.4967 10.6045C72.8901 10.6045 73.2485 10.5423 73.5719 10.4189C73.8954 10.2922 74.1729 10.1139 74.403 9.88379C74.6363 9.65039 74.8163 9.36813 74.943 9.03809C75.073 8.70471 75.1383 8.33131 75.1383 7.91797C75.1383 7.50786 75.073 7.13927 74.943 6.8125C74.8163 6.48238 74.6364 6.20177 74.403 5.97168C74.1729 5.74158 73.8954 5.56479 73.5719 5.44141C73.2485 5.31811 72.8901 5.25684 72.4967 5.25684ZM16.4528 3.23535V10.5244H18.1442V8.08789H19.024C19.5275 8.08789 19.9629 8.0282 20.3297 7.9082C20.6999 7.78481 21.0056 7.61422 21.2457 7.39746C21.4857 7.18076 21.6642 6.92051 21.7809 6.61719C21.8975 6.31387 21.9557 5.98047 21.9557 5.61719C21.9557 5.28051 21.8991 4.96679 21.7858 4.67676C21.6724 4.38663 21.4956 4.13433 21.2555 3.9209C21.0188 3.70755 20.7153 3.54094 20.3453 3.4209C19.9785 3.29751 19.5376 3.23535 19.024 3.23535H16.4528ZM25.2858 5.23633C25.0159 5.2364 24.776 5.31669 24.566 5.47656C24.3593 5.63661 24.1753 5.85666 24.0153 6.13672L23.9352 5.70215C23.9219 5.63559 23.9053 5.57886 23.8854 5.53223C23.8687 5.48554 23.842 5.44855 23.8053 5.42188C23.772 5.39189 23.7287 5.36978 23.6754 5.35645C23.6254 5.34312 23.5616 5.33691 23.485 5.33691H22.5651V10.5244H24.1158V7.37305C24.2092 7.15962 24.3223 6.99212 24.4557 6.87207C24.5923 6.75216 24.7741 6.69245 25.0006 6.69238C25.0406 6.69238 25.0848 6.69548 25.1315 6.70215C25.1813 6.70548 25.2295 6.71113 25.276 6.71777C25.3225 6.7211 25.3675 6.72422 25.4108 6.72754C25.4541 6.73087 25.4896 6.73242 25.5162 6.73242C25.5829 6.73242 25.6348 6.71906 25.6715 6.69238C25.7115 6.66569 25.7398 6.61529 25.7565 6.54199L25.8561 5.40137C25.7094 5.29152 25.519 5.23633 25.2858 5.23633ZM40.1364 5.23633C39.8665 5.23636 39.6266 5.31672 39.4166 5.47656C39.2099 5.63659 39.0259 5.85671 38.8658 6.13672L38.7858 5.70215C38.7725 5.63563 38.7559 5.57884 38.736 5.53223C38.7193 5.48557 38.6925 5.44855 38.6559 5.42188C38.6226 5.39189 38.5793 5.36979 38.526 5.35645C38.476 5.34311 38.4123 5.33691 38.3356 5.33691H37.4156V10.5244H38.9664V7.37305C39.0598 7.15962 39.1729 6.99212 39.3063 6.87207C39.4429 6.7522 39.6247 6.69241 39.8512 6.69238C39.8911 6.69238 39.9345 6.69551 39.9811 6.70215C40.0311 6.70548 40.0799 6.7111 40.1266 6.71777C40.1732 6.7211 40.2181 6.72421 40.2614 6.72754C40.3047 6.73087 40.3401 6.73242 40.3668 6.73242C40.4334 6.73239 40.4855 6.71903 40.5221 6.69238C40.562 6.66566 40.5904 6.61519 40.6071 6.54199L40.7067 5.40137C40.56 5.29144 40.3697 5.23633 40.1364 5.23633ZM52.0367 5.25684C51.8768 5.25686 51.7147 5.27332 51.5514 5.30664C51.3915 5.33999 51.238 5.39195 51.0914 5.46191C50.9481 5.53193 50.8128 5.62398 50.6862 5.7373C50.5629 5.85062 50.4583 5.98755 50.3717 6.14746C50.265 5.87734 50.1078 5.66202 49.901 5.50195C49.6976 5.33856 49.4391 5.25684 49.1256 5.25684C48.9756 5.25685 48.8372 5.27331 48.7106 5.30664C48.5872 5.33665 48.47 5.37984 48.36 5.43652C48.2534 5.48985 48.1535 5.5552 48.0602 5.63184C47.9669 5.70512 47.8773 5.78703 47.7906 5.87695L47.7047 5.59668C47.6446 5.42347 47.5181 5.33691 47.3248 5.33691H46.3649V10.5244H47.9156V6.77246C48.0256 6.66589 48.142 6.5809 48.2653 6.51758C48.392 6.45422 48.5256 6.42188 48.6656 6.42188C48.8924 6.42188 49.0646 6.48249 49.1813 6.60254C49.2978 6.72264 49.3561 6.93105 49.3561 7.22754V10.5244H50.9069V7.22754C50.9069 6.96745 50.9752 6.76856 51.1119 6.63184C51.2519 6.49202 51.4274 6.42188 51.6373 6.42188C52.0972 6.42204 52.3268 6.69082 52.3268 7.22754V10.5244H53.8776V7.22754C53.8776 6.91746 53.8375 6.64087 53.7574 6.39746C53.6775 6.15085 53.5595 5.94403 53.403 5.77734C53.2496 5.60732 53.0578 5.47831 52.8278 5.3916C52.5977 5.30156 52.3335 5.25684 52.0367 5.25684ZM43.8629 9.13379C43.7096 9.2904 43.5578 9.4036 43.4078 9.47363C43.2578 9.54364 43.0825 9.57908 42.8824 9.5791C42.6957 9.5791 42.5534 9.54366 42.4567 9.47363C42.3601 9.40027 42.3122 9.27513 42.3121 9.09863C42.3121 9.00876 42.3334 8.92521 42.3766 8.84863C42.4232 8.77204 42.5052 8.70352 42.6217 8.64355C42.7384 8.58353 42.8972 8.53318 43.0973 8.49316C43.2974 8.45315 43.5528 8.42643 43.8629 8.41309V9.13379ZM57.5504 9.13379C57.3971 9.2904 57.2453 9.40362 57.0953 9.47363C56.9453 9.54366 56.77 9.5791 56.5699 9.5791C56.3834 9.5791 56.2418 9.54353 56.1451 9.47363C56.0485 9.4003 55.9997 9.27526 55.9996 9.09863C55.9996 9.00864 56.0218 8.9253 56.0651 8.84863C56.1118 8.77193 56.1935 8.70358 56.3102 8.64355C56.4268 8.58358 56.5849 8.53316 56.7848 8.49316C56.9849 8.45315 57.2403 8.42643 57.5504 8.41309V9.13379ZM67.6041 9.13379C67.4507 9.29053 67.2981 9.4036 67.1481 9.47363C66.9982 9.5435 66.8234 9.57906 66.6237 9.5791C66.4369 9.5791 66.2946 9.54366 66.1979 9.47363C66.1013 9.40029 66.0534 9.2752 66.0533 9.09863C66.0533 9.00873 66.0746 8.92524 66.1178 8.84863C66.1644 8.772 66.2464 8.70354 66.3629 8.64355C66.4796 8.58353 66.6384 8.53318 66.8385 8.49316C67.0386 8.45316 67.2941 8.42642 67.6041 8.41309V9.13379ZM28.6881 6.40723C29.0448 6.40723 29.3065 6.53225 29.4733 6.78223C29.6433 7.03231 29.7281 7.41425 29.7281 7.92773C29.7281 8.44123 29.6433 8.82468 29.4733 9.07812C29.3065 9.32824 29.0449 9.45312 28.6881 9.45312C28.3213 9.45312 28.0525 9.32823 27.8824 9.07812C27.7125 8.82468 27.6276 8.44106 27.6276 7.92773C27.6276 7.41428 27.7124 7.03231 27.8824 6.78223C28.0525 6.53212 28.3213 6.40723 28.6881 6.40723ZM72.4967 6.40723C72.8534 6.40724 73.1151 6.53224 73.2819 6.78223C73.4519 7.03231 73.5367 7.41425 73.5367 7.92773C73.5367 8.44121 73.4519 8.82468 73.2819 9.07812C73.1151 9.32822 72.8535 9.45311 72.4967 9.45312C72.1299 9.45312 71.8611 9.32824 71.691 9.07812C71.5211 8.82468 71.4362 8.44109 71.4362 7.92773C71.4362 7.41426 71.521 7.03231 71.691 6.78223C71.8611 6.53212 72.1299 6.40723 72.4967 6.40723ZM34.0367 6.29199C34.2935 6.29199 34.479 6.3526 34.5924 6.47266C34.709 6.59269 34.7672 6.75778 34.7672 6.96777C34.7672 7.17106 34.7091 7.33778 34.5924 7.46777C34.479 7.59445 34.2935 7.6582 34.0367 7.6582C33.9102 7.65816 33.7999 7.64073 33.7067 7.60742C33.6169 7.57079 33.542 7.52275 33.4821 7.46289C33.422 7.39953 33.3773 7.32556 33.3473 7.24219C33.3207 7.15897 33.3073 7.0676 33.3073 6.96777C33.3073 6.75775 33.3639 6.5927 33.4772 6.47266C33.5938 6.35268 33.7802 6.29207 34.0367 6.29199ZM19.024 4.50098C19.2375 4.50098 19.4214 4.5277 19.5748 4.58105C19.7315 4.6344 19.8596 4.71154 19.9596 4.81152C20.063 4.90823 20.14 5.02538 20.1901 5.16211C20.24 5.29871 20.2653 5.45064 20.2653 5.61719C20.2652 5.99387 20.1676 6.28704 19.9742 6.49707C19.7808 6.70707 19.4641 6.8125 19.024 6.8125H18.1442V4.50098H19.024ZM66.3883 3.21582C66.2283 3.21582 66.0781 3.24882 65.9381 3.31543C65.7981 3.37877 65.6762 3.47083 65.5729 3.59082C65.4695 3.71087 65.3878 3.85629 65.3278 4.02637C65.2678 4.19307 65.2379 4.38177 65.2379 4.5918H66.1881C66.1881 4.45507 66.2117 4.36464 66.2584 4.32129C66.305 4.27477 66.3681 4.25104 66.4479 4.25098C66.5046 4.25098 66.5698 4.27151 66.6432 4.31152C66.7199 4.34819 66.8032 4.38986 66.8932 4.43652C66.9866 4.48321 67.0873 4.52639 67.194 4.56641C67.3006 4.603 67.4155 4.62109 67.5387 4.62109C67.7021 4.62109 67.8537 4.5897 67.9938 4.52637C68.1338 4.46301 68.2556 4.37258 68.359 4.25586C68.4623 4.13586 68.5426 3.99279 68.5992 3.82617C68.6593 3.65611 68.6891 3.46594 68.6891 3.25586H67.7487C67.7487 3.39256 67.7235 3.48302 67.6735 3.52637C67.6236 3.56611 67.5587 3.58586 67.4791 3.58594C67.4225 3.58594 67.3555 3.5678 67.2789 3.53125C67.2057 3.4913 67.1237 3.44796 67.0338 3.40137C66.9438 3.35468 66.8431 3.31207 66.733 3.27539C66.6265 3.23549 66.5115 3.21584 66.3883 3.21582Z" fill="white"/>
</svg>
